<?xml version="1.0" encoding="UTF-8"?>
<svg width="68px" height="24px" viewBox="0 0 68 24" version="1.1" xmlns="http://www.w3.org/2000/svg" xmlns:xlink="http://www.w3.org/1999/xlink">
    <!-- Generator: Sketch 52.5 (67469) - http://www.bohemiancoding.com/sketch -->
    <title>P;ANE</title>
    <desc>Created with Sketch.</desc>
    <defs>
        <polygon id="path-1" points="0 0 82 0 82 24 0 24"></polygon>
    </defs>
    <g id="HIGH-FID-SEARCH-WIDGET" stroke="none" stroke-width="1" fill="none" fill-rule="evenodd">
        <g id="iPhone-XR" transform="translate(-166.000000, -658.000000)">
            <g id="P;ANE" transform="translate(152.000000, 658.000000)">
                <g id="Group-3">
                    <mask id="mask-2" fill="white">
                        <use xlink:href="#path-1"></use>
                    </mask>
                    <g id="Clip-2"></g>
                    <path d="M15.7542904,11.2410639 C15.9396869,11.4383946 16.0544562,11.7059464 16.0544562,11.9850537 C16.0544562,12.264161 15.9511638,12.5317129 15.7542904,12.7290435 C15.5582998,12.9263741 15.2925648,13.0321505 15.01447,13.0437059 C14.7381409,13.0437059 14.4724058,12.9263741 14.2764152,12.7290435 C14.0795418,12.5317129 13.9638897,12.264161 13.9638897,11.9850537 C13.9638897,11.7059464 14.0795418,11.4383946 14.2764152,11.2410639 C14.4724058,11.0428444 14.7381409,10.9264016 15.01447,10.9264016 C15.2925648,10.9264016 15.5582998,11.0428444 15.7542904,11.2410639 Z M20.4095088,11.2410639 C20.5940225,11.4383946 20.7096746,11.7059464 20.7096746,11.9850537 C20.7096746,12.264161 20.6054995,12.5317129 20.4095088,12.7290435 C20.2126354,12.9263741 19.9469004,13.0321505 19.6696884,13.0437059 C19.3924765,13.0437059 19.1276243,12.9263741 18.9307508,12.7290435 C18.7338774,12.5317129 18.6191081,12.264161 18.6191081,11.9850537 C18.6191081,11.7059464 18.7338774,11.4383946 18.9307508,11.2410639 C19.1276243,11.0428444 19.3924765,10.9264016 19.6696884,10.9264016 C19.9469004,10.9264016 20.2126354,11.0428444 20.4095088,11.2410639 Z M25.0638444,11.2410639 C25.249241,11.4383946 25.3640102,11.7059464 25.3640102,11.9850537 C25.3640102,12.264161 25.2598351,12.5317129 25.0638444,12.7290435 C24.8678538,12.9263741 24.6021188,13.0321505 24.324024,13.0437059 C24.0476949,13.0437059 23.7819599,12.9263741 23.5850865,12.7290435 C23.3890958,12.5317129 23.2734437,12.264161 23.2734437,11.9850537 C23.2734437,11.7059464 23.3890958,11.4383946 23.5850865,11.2410639 C23.7819599,11.0428444 24.0476949,10.9264016 24.324024,10.9264016 C24.6021188,10.9264016 24.8678538,11.0428444 25.0638444,11.2410639 Z M29.7190629,11.2410639 C29.9035766,11.4383946 30.0192287,11.7059464 30.0192287,11.9850537 C30.0192287,12.264161 29.9150535,12.5317129 29.7190629,12.7290435 C29.5221894,12.9263741 29.2564544,13.0321505 28.9792425,13.0437059 C28.7020305,13.0437059 28.4371784,12.9263741 28.2403049,12.7290435 C28.0434315,12.5317129 27.9286622,12.264161 27.9286622,11.9850537 C27.9286622,11.7059464 28.0434315,11.4383946 28.2403049,11.2410639 C28.4371784,11.0428444 28.7020305,10.9264016 28.9792425,10.9264016 C29.2564544,10.9264016 29.5221894,11.0428444 29.7190629,11.2410639 Z M34.3733985,11.2410639 C34.558795,11.4383946 34.6735643,11.7059464 34.6735643,11.9850537 C34.6735643,12.264161 34.5693891,12.5317129 34.3733985,12.7290435 C34.1774079,12.9263741 33.9116729,13.0321505 33.6335781,13.0437059 C33.357249,13.0437059 33.091514,12.9263741 32.8946405,12.7290435 C32.6986499,12.5317129 32.5829978,12.264161 32.5829978,11.9850537 C32.5829978,11.7059464 32.6986499,11.4383946 32.8946405,11.2410639 C33.091514,11.0428444 33.357249,10.9264016 33.6335781,10.9264016 C33.9116729,10.9264016 34.1774079,11.0428444 34.3733985,11.2410639 Z M39.028617,11.2410639 C39.2131306,11.4383946 39.3287828,11.7059464 39.3287828,11.9850537 C39.3287828,12.264161 39.2246076,12.5317129 39.028617,12.7290435 C38.8317435,12.9263741 38.5660085,13.0321505 38.2887965,13.0437059 C38.0115846,13.0437059 37.7467324,12.9263741 37.549859,12.7290435 C37.3529855,12.5317129 37.2382162,12.264161 37.2382162,11.9850537 C37.2382162,11.7059464 37.3529855,11.4383946 37.549859,11.2410639 C37.7467324,11.0428444 38.0115846,10.9264016 38.2887965,10.9264016 C38.5660085,10.9264016 38.8317435,11.0428444 39.028617,11.2410639 Z M43.6829526,11.2410639 C43.8683491,11.4383946 43.9831184,11.7059464 43.9831184,11.9850537 C43.9831184,12.264161 43.8789432,12.5317129 43.6829526,12.7290435 C43.4860791,12.9263741 43.2212269,13.0321505 42.9431321,13.0437059 C42.666803,13.0437059 42.401068,12.9263741 42.2041946,12.7290435 C42.008204,12.5317129 41.8925518,12.264161 41.8925518,11.9850537 C41.8925518,11.7059464 42.008204,11.4383946 42.2041946,11.2410639 C42.401068,11.0428444 42.666803,10.9264016 42.9431321,10.9264016 C43.2212269,10.9264016 43.4860791,11.0428444 43.6829526,11.2410639 Z M48.338171,11.2410639 C48.5226847,11.4383946 48.637454,11.7059464 48.637454,11.9850537 C48.637454,12.264161 48.5341616,12.5317129 48.338171,12.7290435 C48.1412976,12.9263741 47.8755625,13.0321505 47.5983506,13.0437059 C47.3211386,13.0437059 47.0554036,12.9263741 46.859413,12.7290435 C46.6625396,12.5317129 46.5477703,12.264161 46.5477703,11.9850537 C46.5477703,11.7059464 46.6625396,11.4383946 46.859413,11.2410639 C47.0554036,11.0428444 47.3211386,10.9264016 47.5983506,10.9264016 C47.8755625,10.9264016 48.1412976,11.0428444 48.338171,11.2410639 Z M53.2926724,11.9850537 C53.2926724,12.264161 53.1884972,12.5317129 52.9925066,12.7290435 C52.7956332,12.9263741 52.530781,13.0321505 52.2526862,13.0437059 C51.9763571,13.0437059 51.7106221,12.9263741 51.5137486,12.7290435 C51.317758,12.5317129 51.2021059,12.264161 51.2021059,11.9850537 C51.2021059,11.7059464 51.317758,11.4383946 51.5137486,11.2410639 C51.7106221,11.0428444 51.9763571,10.9264016 52.2526862,10.9264016 C52.530781,10.9264016 52.7956332,11.0428444 52.9925066,11.2410639 C53.1779031,11.4383946 53.2926724,11.7059464 53.2926724,11.9850537 Z M58.5544024,11.0001783 L55.831722,2.75140262 L75.9684331,11.0001783 L58.5544024,11.0001783 Z M55.8193622,21.2071494 L58.5544024,12.9592626 L75.9569561,12.9592626 L55.8193622,21.2071494 Z M81.9761633,11.7992785 C81.9761633,11.7761677 81.9646864,11.7637234 81.9646864,11.7406126 C81.9532094,11.694391 81.9417325,11.6597248 81.9293728,11.6126144 C81.9187787,11.5895036 81.9187787,11.5779482 81.9073017,11.5548374 C81.883465,11.4961715 81.861394,11.4499499 81.8260804,11.392173 L81.8154863,11.3806176 C81.7792899,11.3335071 81.7457419,11.2872855 81.7104283,11.2526193 L81.6759975,11.2179531 C81.6406839,11.1823981 81.6071359,11.1592873 81.5727052,11.1352876 C81.5603454,11.1246211 81.5373915,11.1130657 81.5259146,11.1015103 C81.490601,11.0775106 81.4455761,11.0543998 81.3987856,11.031289 C81.3873086,11.0197336 81.3749489,11.0197336 81.3643548,11.0081782 L54.6557783,0.074994889 C54.2743912,-0.076114149 53.8479792,0.00477363016 53.5469305,0.284769789 C53.2467647,0.562988194 53.1425895,0.994093391 53.2706014,1.38964352 L56.7701815,11.9966091 L53.2467647,22.6044636 C53.1196357,23.0000137 53.2238109,23.43023 53.5239767,23.7084484 C53.7199673,23.8951126 53.9742254,24 54.2399604,24 C54.3670894,24 54.5056954,23.9768892 54.6328244,23.9182233 L81.3643548,12.98504 L81.3749489,12.98504 C81.3873086,12.98504 81.3987856,12.9734846 81.4111453,12.9628181 C81.457053,12.9388184 81.5029607,12.9157076 81.5373915,12.8925968 C81.5497513,12.8801526 81.5727052,12.869486 81.5832992,12.8579306 C81.61773,12.833931 81.6530436,12.7992648 81.6874744,12.776154 L81.7227881,12.7414878 C81.7686958,12.6943773 81.8031265,12.6481557 81.8384402,12.6019341 C81.8719881,12.5557126 81.8958248,12.4970467 81.9187787,12.4383808 C81.9293728,12.41527 81.9293728,12.4037146 81.9417325,12.3806038 C81.9532094,12.3334934 81.9646864,12.2988272 81.9761633,12.2526056 C81.9761633,12.2294948 81.9885231,12.2179394 81.9885231,12.1939397 C81.9885231,12.113052 82,12.0428307 82,11.9850537 C82,11.9157213 81.9885231,11.8570555 81.9761633,11.7992785 Z" id="Fill-1" fill="#9B9B9B" mask="url(#mask-2)"></path>
                </g>
            </g>
        </g>
    </g>
</svg>